<?xml version="1.0" encoding="UTF-8" standalone="no"?>
<!-- Created with Inkscape (http://www.inkscape.org/) -->

<svg
   xmlns:dc="http://purl.org/dc/elements/1.1/"
   xmlns:cc="http://creativecommons.org/ns#"
   xmlns:rdf="http://www.w3.org/1999/02/22-rdf-syntax-ns#"
   xmlns:svg="http://www.w3.org/2000/svg"
   xmlns="http://www.w3.org/2000/svg"
   xmlns:sodipodi="http://sodipodi.sourceforge.net/DTD/sodipodi-0.dtd"
   xmlns:inkscape="http://www.inkscape.org/namespaces/inkscape"
   id="svg3122"
   version="1.1"
   inkscape:version="0.48.4 r9939"
   width="500"
   height="372"
   sodipodi:docname="zodiac-pisces.png">
  <metadata
     id="metadata3128">
    <rdf:RDF>
      <cc:Work
         rdf:about="">
        <dc:format>image/svg+xml</dc:format>
        <dc:type
           rdf:resource="http://purl.org/dc/dcmitype/StillImage" />
        <dc:title></dc:title>
      </cc:Work>
    </rdf:RDF>
  </metadata>
  <defs
     id="defs3126" />
  <sodipodi:namedview
     pagecolor="#ffffff"
     bordercolor="#666666"
     borderopacity="1"
     objecttolerance="10"
     gridtolerance="10"
     guidetolerance="10"
     inkscape:pageopacity="0"
     inkscape:pageshadow="2"
     inkscape:window-width="640"
     inkscape:window-height="480"
     id="namedview3124"
     showgrid="false"
     inkscape:zoom="0.632"
     inkscape:cx="250"
     inkscape:cy="186"
     inkscape:window-x="53"
     inkscape:window-y="24"
     inkscape:window-maximized="0"
     inkscape:current-layer="svg3122" />
  <path
     style="fill:#000000"
     d="m 82.29464,359.75 c -0.522637,-0.6875 -2.226282,-3.5 -3.785879,-6.25 -3.444479,-6.07357 -4.148389,-6.58751 -7.353447,-5.36895 -2.131223,0.81029 -2.834241,0.55033 -4.641625,-1.71634 -1.593678,-1.99867 -2.666032,-2.50113 -4.2589,-1.99558 -1.653406,0.52477 -3.337703,-0.419 -7.54089,-4.22542 -2.97659,-2.69562 -6.573497,-5.19264 -7.993126,-5.54894 -2.509291,-0.6298 -7.934295,-7.44598 -9.770842,-12.27646 -0.591416,-1.55554 -1.828387,-2.33041 -4.072654,-2.5512 -2.805715,-0.27603 -3.405949,-0.86765 -4.633599,-4.56711 -0.775689,-2.3375 -1.952552,-4.25 -2.615249,-4.25 -1.641158,0 -7.812878,-7.61732 -10.041784,-12.39386 -1.551567,-3.32501 -1.64406,-4.47114 -0.633124,-7.84534 1.017479,-3.39605 0.945785,-4.21458 -0.510045,-5.82326 -1.015297,-1.12189 -1.469614,-2.72958 -1.134012,-4.01293 0.38566,-1.47476 -0.202932,-2.84815 -1.891184,-4.41277 -2.4443471,-2.26534 -2.4469661,-2.28918 -0.949475,-8.64172 0.825898,-3.50357 1.508284,-7.55252 1.516414,-8.99768 0.0081,-1.44515 0.750984,-3.23854 1.650787,-3.98532 0.899804,-0.74677 2.697354,-3.03904 3.994557,-5.09394 1.297202,-2.05491 3.663246,-4.41087 5.257874,-5.23549 1.594628,-0.82461 4.262463,-2.86244 5.928521,-4.52849 4.843266,-4.84327 5.805792,-4.1389 6.451011,4.7208 0.533069,7.31975 -1.245321,18.28478 -3.558283,21.93933 -2.219458,3.50681 3.835348,21.37164 9.384318,27.68862 1.99149,2.26713 4.555407,5.95854 5.697593,8.20313 1.142186,2.2446 3.592906,5.23755 5.446043,6.65101 3.938469,3.00402 12.116592,11.00309 15.92213,15.57353 1.462874,1.75691 3.589498,3.19438 4.725831,3.19438 1.136333,0 3.539436,0.89832 5.340229,1.99626 4.379467,2.67016 9.501548,2.54631 13.792035,-0.33349 1.915174,-1.28548 4.97712,-2.84839 6.804325,-3.47315 1.8272,-0.62475 5.04196,-2.498 7.1439,-4.16277 2.10195,-1.66477 4.49025,-3.02685 5.30735,-3.02685 0.8171,0 3.17507,-2.06173 5.23994,-4.58163 2.62354,-3.20169 4.3053,-4.43754 5.58369,-4.10324 2.25173,0.58885 2.87774,-0.24735 5.85074,-7.81513 2.80824,-7.1484 3.50456,-8.12966 6.93031,-9.76621 1.44204,-0.68889 2.7608,-2.22361 2.9306,-3.41049 0.46752,-3.268 5.06089,-7.85369 6.4627,-6.45188 2.02287,2.02287 3.25433,1.21384 6.6297,-4.35549 2.33975,-3.86056 3.14625,-6.19105 2.72431,-7.87218 -0.42668,-1.70004 0.46828,-4.1869 3.10614,-8.63118 2.03803,-3.43369 4.2017,-6.43347 4.80815,-6.66618 0.61693,-0.23674 0.90485,-1.77073 0.65362,-3.48241 -0.24695,-1.68261 0.12633,-4.92784 0.82952,-7.21163 3.53769,-11.48957 6.40169,-19.3013 8.09364,-22.0759 1.03181,-1.69205 1.88448,-4.20145 1.89482,-5.57645 0.0227,-3.02414 2.09749,-9.22125 3.75644,-11.22017 2.03576,-2.45294 4.23224,-9.81099 4.23224,-14.17771 0,-3.09573 0.73164,-5.03404 2.88729,-7.64921 2.70139,-3.27726 2.93442,-4.2738 3.61934,-15.47785 0.40263,-6.58628 1.2217,-12.87506 1.82017,-13.97506 0.59846,-1.1 1.41515,-6.275 1.81486,-11.5 0.39972,-5.225 1.17078,-14.34742 1.71348,-20.27203 0.60648,-6.62092 0.63958,-13.17205 0.0859,-17 C 192.44559,102.30258 192.01141,96.575 191.97621,93 c -0.0352,-3.575 -0.74071,-8.3 -1.5678,-10.5 -2.25044,-5.986014 -3.79098,-14.915789 -4.34459,-25.183578 -0.0351,-0.650967 -1.30132,-1.325967 -2.81382,-1.5 -2.23084,-0.256687 -2.84439,-0.920266 -3.25,-3.515018 -0.89033,-5.695589 -10.78482,-15.682028 -21.35144,-21.54985 -3.47078,-1.927381 -9.38716,-2.260502 -14.43512,-0.812768 C 139.22828,31.36851 121.03635,45.60591 121.0142,48.095012 121.00639,48.972269 120.1,50.504514 119,51.5 c -1.1,0.995486 -2,2.31077 -2,2.922853 0,0.612083 -1.05571,2.679839 -2.34602,4.595012 -1.71511,2.545695 -2.51288,5.500356 -2.96651,10.986847 -0.651,7.87364 -2.0094,12.929746 -4.52036,16.825182 -1.2531,1.944024 -2.05741,2.225666 -4.85646,1.700562 -2.362764,-0.443258 -3.812754,-0.171209 -4.904069,0.920106 -2.589792,2.589792 -4.550932,1.97276 -3.758966,-1.182683 0.377145,-1.502666 0.593878,-3.190166 0.481629,-3.75 -0.112249,-0.559833 -0.456199,-3.388067 -0.764332,-6.284964 -0.401228,-3.77211 -1.10019,-5.556056 -2.462578,-6.285184 C 88.937705,70.896293 88.227125,67 90,67 c 0.55,0 1,-0.45 1,-1 0,-0.55 -0.675,-1 -1.5,-1 -1.992901,0 -1.919829,-3.707309 0.147828,-7.5 0.899528,-1.65 2.680018,-5.100598 3.956644,-7.667995 1.276626,-2.567397 2.825117,-4.979472 3.441093,-5.360165 0.615975,-0.380694 2.003336,-2.555096 3.083025,-4.832005 1.07969,-2.276909 2.72995,-5.504358 3.66724,-7.172108 C 105.64458,29.178192 115.11309,20 116.65792,20 c 0.52279,0 3.17612,-1.419239 5.8963,-3.153864 6.77317,-4.319169 15.84523,-7.0249638 19.23385,-5.73661 2.09084,0.794932 3.1535,0.570456 5.49513,-1.1607833 2.09867,-1.5516144 3.63918,-1.9580777 5.55991,-1.4669838 5.406,1.3822093 9.72417,1.6354241 12.15689,0.712874 1.96142,-0.7438196 3.57717,-0.4084116 7.5,1.5568991 7.6501,3.832642 10.41138,6.100607 11.97037,9.831799 0.92741,2.219612 2.1054,3.416669 3.36224,3.416669 2.75518,0 8.86488,7.16283 10.13589,11.883017 0.62842,2.33377 1.83227,4.236363 2.89369,4.573245 0.99967,0.317283 2.29853,1.581922 2.88635,2.810308 C 207.97115,52.090696 211,59.49362 211,60.99015 c 0,3.223578 3.11607,9.466777 6.32956,12.681576 6.09524,6.097717 7.70765,8.892244 7.04433,12.20882 -0.52922,2.646128 -0.26033,3.21213 1.91977,4.041005 2.47221,0.939931 2.86622,1.638662 4.13245,7.328449 0.3366,1.5125 1.22332,2.75 1.9705,2.75 2.9269,0 3.82263,2.93426 3.7347,12.23435 -0.0482,5.09611 0.38448,11.34906 0.96146,13.89546 1.21488,5.36171 -0.0982,11.79033 -3.21848,15.75713 l -1.93294,2.45734 3.02933,3.12547 c 1.66612,1.719 3.02932,4.11654 3.02932,5.32786 0,1.94144 0.52972,2.20239 4.47076,2.20239 3.40844,0 5.53954,-0.75334 8.96866,-3.17041 4.39903,-3.10072 4.59198,-3.13989 8.77923,-1.7824 2.35474,0.76339 5.39695,1.95391 6.76046,2.64558 2.99999,1.52182 8.69885,0.76564 13.78951,-1.82972 2.00985,-1.02468 4.21306,-1.86305 4.89603,-1.86305 0.68297,0 2.11183,-1.96693 3.17524,-4.37095 1.06341,-2.40402 2.42856,-4.67693 3.03366,-5.0509 0.60509,-0.37397 1.81302,-3.13204 2.68427,-6.12905 0.87125,-2.997 1.94757,-5.4491 2.39182,-5.4491 1.82795,0 3.30567,-6.23733 2.75099,-11.61167 -0.53469,-5.18062 -0.34899,-5.8317 2.8638,-10.04069 C 305.12996,102.98662 306,100.85323 306,97.923404 306,94.690085 306.34559,94 307.96482,94 c 2.40191,0 4.36992,-3.369952 3.52418,-6.034667 -0.42253,-1.331276 0.72599,-4.043194 3.58384,-8.462228 C 317.38595,75.926397 319.60247,73 319.99845,73 c 0.39599,0 2.72604,-1.76581 5.1779,-3.924023 2.45185,-2.158213 6.00271,-4.32282 7.89079,-4.810239 2.90518,-0.749992 3.50972,-1.410451 3.93286,-4.29667 0.4475,-3.052327 1.18332,-3.740342 7.00728,-6.551973 3.86015,-1.863563 7.05681,-4.168329 7.85816,-5.665666 0.74299,-1.388282 2.76471,-2.928599 4.49272,-3.422927 2.42966,-0.695045 3.42629,-1.762081 4.39671,-4.707289 1.23069,-3.735132 4.65453,-7.522137 6.86027,-7.587944 0.61333,-0.0183 2.25931,-0.933269 3.65773,-2.033269 1.39842,-1.1 3.64842,-2 5,-2 1.35158,0 3.69423,-0.97288 5.20589,-2.161955 2.08598,-1.640832 4.46865,-2.251118 9.88486,-2.531861 15.65533,-0.811477 17.65361,-0.990078 18.29905,-1.635524 C 410.03154,21.301797 411.17417,21 412.20185,21 c 1.02768,0 2.99209,-0.736194 4.36535,-1.635986 3.77447,-2.473128 13.4114,-1.343845 18.47452,2.164895 3.36182,2.329742 4.52524,2.613158 8.36399,2.037502 3.63968,-0.545804 5.37006,-0.20699 9.4174,1.843951 4.57699,2.319339 19.23254,15.541517 21.63726,19.521053 0.5718,0.946258 2.95213,4.568561 5.28963,8.049563 2.3375,3.481002 4.25277,7.046828 4.25616,7.924058 0.003,0.87723 0.6938,2.913597 1.53424,4.52526 2.48803,4.771142 1.01834,11.434733 -5.38667,24.423263 -2.27588,4.6152 -9.52061,9.423779 -15.3188,10.167621 l -4.69613,0.60245 0.56852,-5.061813 c 0.31268,-2.783999 0.95645,-5.819733 1.4306,-6.746076 C 462.61206,87.889399 463,85.767558 463,84.100538 c 0,-1.941759 1.07807,-4.258795 3,-6.447757 3.62206,-4.1253 3.77278,-6.642845 0.6173,-10.311303 -2.07529,-2.412672 -3.10442,-2.770049 -7.97687,-2.770049 -5.20393,0 -5.66107,-0.191875 -6.55302,-2.750528 -0.57876,-1.660226 -1.94151,-2.997162 -3.43784,-3.372718 -1.57427,-0.395115 -2.90963,-1.776559 -3.65892,-3.785187 -3.89057,-10.429444 -4.19638,-10.8598 -7.38436,-10.391903 -1.92613,0.282696 -4.75109,-0.430901 -7.83217,-1.978439 -4.62125,-2.321122 -5.19867,-2.377132 -14.04674,-1.362554 -13.49368,1.547274 -18.95593,2.536387 -21.41164,3.877251 C 393.1144,45.463308 391.17855,46 390.01386,46 c -1.16469,0 -3.78178,0.862724 -5.81574,1.917165 -2.03397,1.05444 -4.93562,2.394793 -6.44812,2.978561 -1.75821,0.678604 -2.75,1.799354 -2.75,3.107586 0,1.250811 -0.95145,2.407931 -2.4477,2.976804 -2.6248,0.997945 -4.89284,3.989156 -6.08097,8.019884 -0.70833,2.403007 -3.86191,6.657293 -9.73712,13.135688 -1.52119,1.677361 -3.16044,4.806161 -3.64278,6.952889 -0.48233,2.146728 -2.16273,5.46346 -3.7342,7.370516 C 343.31842,99.787455 342,101.89449 342,104.21703 c 0,1.32039 -0.66069,3.27422 -1.4682,4.34184 -0.8075,1.06762 -1.4825,3.76762 -1.5,6 -0.0175,2.23238 -0.69249,4.93238 -1.5,6 -0.91501,1.20975 -1.48018,4.28441 -1.5,8.16034 -0.0221,4.31485 -0.67217,7.44777 -2.1231,10.23145 -1.15022,2.20674 -2.48741,7.16688 -2.97155,11.02255 -0.48413,3.85567 -1.50447,8.02651 -2.26741,9.26855 -1.87493,3.05228 -3.94606,38.38738 -2.64236,45.08073 0.79024,4.0572 0.62455,5.43945 -1.04404,8.71017 -2.41216,4.72823 -2.47619,6.86598 -0.3398,11.34603 1.51745,3.18212 1.51946,3.75667 0.0262,7.4887 -1.33706,3.34163 -1.3893,4.27019 -0.30148,5.35801 2.54936,2.54936 3.91392,6.21832 4.17293,11.21992 0.14397,2.78008 0.99972,7.52968 1.90167,10.55468 0.90195,3.025 2.08632,7.24431 2.63193,9.37624 0.54561,2.13193 2.32602,6.40693 3.95647,9.5 1.63045,3.09307 2.96542,6.03833 2.9666,6.54502 10e-4,0.50669 0.72122,1.71584 1.6001,2.68699 1.60433,1.77276 1.07583,4.42621 -0.66706,3.34904 -1.52178,-0.94051 -1.0194,0.86977 0.95345,3.43565 1.44306,1.87682 2.46275,2.27033 4.72777,1.82449 2.14653,-0.42252 4.50533,0.33076 9.18856,2.93435 6.2489,3.474 6.4256,3.50721 21.5,4.04053 10.39964,0.36793 15.89872,0.97509 17.41414,1.92271 3.255,2.03543 5.18446,1.70015 6.47147,-1.12453 1.13775,-2.4971 10.8252,-7.80646 19.04762,-10.43935 2.10655,-0.67453 5.1805,-2.88563 7.05301,-5.07324 3.56911,-4.1697 7.12401,-5.9779 11.7525,-5.9779 3.39053,0 5.96058,-3.89284 5.96058,-9.02847 0,-4.41033 6.6577,-17.73209 10.58516,-21.18045 1.811,-1.59008 3.78714,-4.38914 4.39143,-6.22015 0.60428,-1.831 1.98176,-4.12825 3.06106,-5.105 1.07929,-0.97675 1.96235,-2.15102 1.96235,-2.60949 0,-0.99027 -2.76597,-4.49588 -5.32529,-6.74931 -3.37974,-2.9758 -3.80009,-4.77636 -1.99752,-8.55638 1.67464,-3.51177 1.75982,-3.54966 7.75802,-3.45107 8.26368,0.13582 10.83653,1.01111 12.37823,4.21112 0.72239,1.49943 2.44772,3.46944 3.83407,4.37781 1.38635,0.90837 3.98303,3.56683 5.77041,5.90768 3.19509,4.18449 3.23114,4.34946 2.14201,9.80382 -0.60926,3.05125 -1.6595,6.09946 -2.33384,6.7738 C 486.55174,250.84826 486,251.85746 486,252.41657 486,254.92458 482.59632,262 481.38982,262 c -0.73615,0 -2.07765,1.4625 -2.98111,3.25 -0.90346,1.7875 -2.57707,4.27166 -3.71912,5.52036 l -2.07647,2.27036 2.25034,1.5762 c 3.39196,2.37582 2.46656,5.64021 -1.84764,6.51765 -3.73021,0.75866 -8.01582,4.87472 -8.01582,7.69869 0,3.32736 -3.18791,6.20064 -11.30525,10.18946 -4.50711,2.21477 -10.21975,5.56082 -12.69475,7.43568 -2.69134,2.03873 -5.70957,3.4355 -7.50945,3.47521 -1.86787,0.0412 -3.48008,0.81998 -4.25013,2.05302 -0.68237,1.09265 -2.88027,2.6717 -4.88422,3.50901 -2.00395,0.8373 -4.6261,2.58256 -5.827,3.87835 -2.66886,2.87975 -11.66387,4.03343 -21.5292,2.76127 -5.10037,-0.6577 -6.98291,-0.52345 -8.74266,0.62348 -1.28242,0.83582 -5.78783,1.68284 -10.52236,1.97822 -6.85487,0.42766 -8.51203,0.23661 -9.62978,-1.1102 -1.52543,-1.83803 -8.59959,-2.25387 -9.64225,-0.56681 -0.85299,1.38016 -10.21816,0.23262 -15.78591,-1.93429 -2.29737,-0.89411 -6.5352,-3.42566 -9.41738,-5.62566 -3.99389,-3.04857 -5.52422,-4.98991 -6.43381,-8.16176 -0.98594,-3.43813 -1.71519,-4.26611 -4.19404,-4.76188 C 319.33604,301.91721 316,299.36361 316,297.5 c 0,-0.65451 -0.94788,-2.04727 -2.10641,-3.09501 -1.15852,-1.04775 -2.96767,-3.59249 -4.02032,-5.65499 -1.05266,-2.0625 -2.31075,-3.75 -2.79577,-3.75 -0.48502,0 -1.34086,-1.31673 -1.90188,-2.92607 -0.75081,-2.15376 -1.76328,-3.01157 -3.83599,-3.25 -2.36891,-0.27251 -2.90732,-0.89107 -3.39152,-3.89644 -0.31657,-1.96488 -1.78439,-5.15736 -3.26184,-7.09439 -3.14455,-4.12272 -3.31966,-5.3786 -0.93627,-6.71487 1.59323,-0.89326 1.4876,-1.25531 -1.17909,-4.04135 -2.53244,-2.64578 -2.89834,-3.73419 -2.70199,-8.03743 0.20912,-4.58302 0.0253,-5.0279 -2.3209,-5.61675 C 285.903,243.00982 285,242.08952 285,240.82585 c 0,-1.07653 -0.49169,-2.87606 -1.09264,-3.99895 -0.79019,-1.47648 -0.79019,-2.34407 0,-3.13426 1.37823,-1.37823 1.40827,-5.23436 0.0604,-7.75289 -0.56773,-1.06083 -1.10125,-5.31208 -1.18559,-9.44724 -0.1195,-5.85887 -0.55385,-7.88091 -1.96776,-9.16047 -2.22517,-2.01376 -2.28683,-4.27455 -0.24856,-9.11416 1.27842,-3.03546 1.3521,-4.37201 0.40142,-7.2816 -1.01569,-3.10851 -0.89684,-4.00266 0.93042,-7 3.87922,-6.36327 1.69832,-12.5956 -2.93903,-8.39886 -1.75415,1.58749 -2.39857,1.63751 -5.95865,0.46258 -3.50641,-1.15722 -4.21465,-1.11572 -5.82463,0.3413 -2.20877,1.99891 -3.18593,2.05342 -6.4503,0.35984 -1.81239,-0.94027 -4.53566,-1.09538 -9.86431,-0.56182 -4.04842,0.40537 -8.55168,0.76485 -10.00725,0.79886 -4.09151,0.0956 -13.09729,14.981 -18.47677,30.53975 -1.32695,3.83786 -3.58374,8.74759 -5.01509,10.9105 -1.89396,2.86196 -2.70324,5.57479 -2.97268,9.96479 -0.31532,5.13758 -0.83334,6.51004 -3.49279,9.25389 -2.26304,2.33487 -3.26252,4.4634 -3.63103,7.73281 -0.39236,3.48106 -1.36311,5.38442 -4.25128,8.33561 -2.05855,2.10346 -4.25226,5.39947 -4.87491,7.32447 -1.0777,3.33183 -5.68501,7.90421 -9.33457,9.26381 -1.32023,0.49183 -1.56863,1.41416 -1.12203,4.16621 0.46691,2.87728 0.22436,3.64594 -1.30439,4.13361 -5.99724,1.91314 -6.49828,2.34306 -5.3126,4.55852 1.53107,2.86083 -0.20885,6.62477 -3.43688,7.43496 -1.34174,0.33675 -2.65713,1.44441 -2.9231,2.46146 -0.32193,1.23106 -1.77416,2.06447 -4.34448,2.49322 -6.02502,1.00503 -6.13268,1.09172 -7.53904,6.07106 -1.31973,4.67261 -1.86506,5.23802 -6.99722,7.25488 -1.47144,0.57825 -3.84452,3.04641 -5.27352,5.4848 -2.52099,4.30175 -2.54768,4.52141 -0.89851,7.39492 1.67902,2.92552 1.66,3.01081 -1.5667,7.02601 -2.46466,3.06693 -4.41006,4.34944 -7.92614,5.22527 -2.56288,0.6384 -6.15683,2.0368 -7.98655,3.10757 -3.46548,2.02801 -5.17323,1.81829 -5.17323,-0.63532 0,-3.82732 -4.43368,0.44078 -5.45561,5.25186 -0.56409,2.65569 -1.46607,3.49311 -5.36129,4.97759 -2.57571,0.98161 -6.30092,3.48233 -8.27826,5.55715 -2.94023,3.08519 -4.30652,3.77812 -7.5,3.80369 -2.147664,0.0172 -6.15484,1.13809 -8.90484,2.49086 -5.613275,2.76126 -7.816288,3.05512 -9.20536,1.22787 z"
     id="path3264"
     inkscape:connector-curvature="0" />
</svg>
